<?xml version="1.0" encoding="UTF-8"?>
<svg id="logo-50" xmlns="http://www.w3.org/2000/svg" version="1.1" xmlns:xlink="http://www.w3.org/1999/xlink" viewBox="0 0 153 38">
  <defs>
    <style>
      .cls-1 {
        fill: url(#Unbenannter_Verlauf_3);
        fill-rule: evenodd;
      }

      .cls-1, .cls-2 {
        stroke-width: 0px;
      }

      .cls-2 {
        fill: #fff;
      }
    </style>
    <linearGradient id="Unbenannter_Verlauf_3" data-name="Unbenannter Verlauf 3" x1="5.6" y1="23.6" x2="30.9" y2="23.6" gradientTransform="translate(0 40) scale(1 -1)" gradientUnits="userSpaceOnUse">
      <stop offset="0" stop-color="#64c2db"/>
      <stop offset=".3" stop-color="#fff"/>
      <stop offset=".6" stop-color="#c994df"/>
      <stop offset="1" stop-color="#e56f8c"/>
    </linearGradient>
  </defs>
  <path class="cls-2" d="M.9,28.2V9.4s9.4,5.2,9.4,5.2v8.4l7.5,4.2,7.5-4.2v-8.4l9.4-5.2v18.8l-16.9,9.4L.9,28.2Z"/>
  <path class="cls-1" d="M5.6,12L.9,9.4,17.8,0l16.9,9.4-4.7,2.6v13.8l-12.2,7-12.2-7v-13.8ZM29.5,12.3l-4.2,2.3h0c0,0-7.5-4.3-7.5-4.3l-7.5,4.2h0c0,0-4.2-2.3-4.2-2.3v13.3l11.7,6.8,11.7-6.8v-13.3Z"/>
  <path class="cls-2" d="M43.7,26.7v-15.8h3v13.1h7.2v2.7h-10.2Z"/>
  <path class="cls-2" d="M60.3,27c-1.1,0-2.1-.2-3-.7-.9-.5-1.6-1.1-2.1-2-.5-.9-.8-1.9-.8-3.1v-.4c0-1.2.3-2.2.8-3.1.5-.9,1.2-1.5,2.1-2,.9-.5,1.9-.7,3-.7s2.1.2,3,.7c.9.5,1.6,1.1,2.1,2,.5.9.8,1.9.8,3.1v.4c0,1.2-.3,2.2-.8,3.1-.5.9-1.2,1.5-2.1,2-.9.5-1.9.7-3,.7ZM60.3,24.5c.9,0,1.6-.3,2.2-.8.6-.6.9-1.4.9-2.4v-.2c0-1.1-.3-1.9-.9-2.4-.6-.6-1.3-.9-2.2-.9s-1.6.3-2.2.9c-.6.6-.9,1.4-.9,2.4v.2c0,1.1.3,1.9.9,2.4.6.6,1.3.8,2.2.8Z"/>
  <path class="cls-2" d="M67.2,21.2v-.4c0-1.2.2-2.2.7-3,.5-.8,1.1-1.5,1.8-1.9.8-.5,1.6-.7,2.5-.7s1.8.2,2.3.5c.5.4.9.7,1.1,1.1h.4v-1.4h2.8v13.2c0,.8-.2,1.4-.7,1.8-.5.5-1.1.7-1.8.7h-7.5v-2.5h6.5c.4,0,.6-.2.6-.7v-2.9h-.4c-.2.2-.4.5-.6.7-.3.2-.6.4-1.1.6-.5.2-1,.2-1.7.2s-1.8-.2-2.5-.7c-.8-.5-1.4-1.1-1.8-1.9-.5-.8-.7-1.8-.7-3ZM73.2,24.3c.9,0,1.6-.3,2.2-.8.6-.6.9-1.3.9-2.3v-.2c0-1-.3-1.8-.9-2.3-.6-.6-1.3-.8-2.2-.8s-1.6.3-2.2.8c-.6.5-.9,1.3-.9,2.3v.2c0,1,.3,1.8.9,2.3.6.6,1.3.8,2.2.8Z"/>
  <path class="cls-2" d="M86.5,27c-1.1,0-2.1-.2-3-.7-.9-.5-1.6-1.1-2.1-2-.5-.9-.8-1.9-.8-3.1v-.4c0-1.2.3-2.2.8-3.1.5-.9,1.2-1.5,2.1-2,.9-.5,1.9-.7,3-.7s2.1.2,3,.7c.9.5,1.6,1.1,2.1,2,.5.9.8,1.9.8,3.1v.4c0,1.2-.3,2.2-.8,3.1-.5.9-1.2,1.5-2.1,2-.9.5-1.9.7-3,.7ZM86.5,24.5c.9,0,1.6-.3,2.2-.8.6-.6.9-1.4.9-2.4v-.2c0-1.1-.3-1.9-.9-2.4-.6-.6-1.3-.9-2.2-.9s-1.6.3-2.2.9c-.6.6-.9,1.4-.9,2.4v.2c0,1.1.3,1.9.9,2.4.6.6,1.3.8,2.2.8Z"/>
  <path class="cls-2" d="M93.9,26.7v-11.2h2.8v11.2h-2.8ZM95.4,14.2c-.5,0-.9-.2-1.3-.5-.3-.3-.5-.8-.5-1.3s.2-1,.5-1.3c.4-.3.8-.5,1.3-.5s1,.2,1.3.5c.3.3.5.8.5,1.3s-.2,1-.5,1.3-.8.5-1.3.5Z"/>
  <path class="cls-2" d="M98.9,31.2v-15.7h2.8v1.4h.4c.3-.4.7-.8,1.2-1.1.5-.3,1.3-.5,2.3-.5s1.7.2,2.5.7c.8.4,1.4,1.1,1.8,1.9.5.9.7,1.9.7,3.1v.4c0,1.2-.2,2.3-.7,3.1-.5.9-1.1,1.5-1.8,2-.8.4-1.6.7-2.5.7s-1.2,0-1.7-.2c-.5-.2-.8-.3-1.1-.6-.3-.3-.5-.5-.7-.8h-.4v5.8h-2.8ZM104.8,24.5c.9,0,1.6-.3,2.2-.8.6-.6.9-1.4.9-2.5v-.2c0-1.1-.3-1.9-.9-2.5-.6-.6-1.3-.9-2.2-.9s-1.6.3-2.2.9c-.6.6-.9,1.4-.9,2.5v.2c0,1.1.3,1.9.9,2.5.6.6,1.3.8,2.2.8Z"/>
  <path class="cls-2" d="M116.9,27c-1.5,0-2.7-.3-3.6-.9-.9-.6-1.5-1.5-1.7-2.7l2.6-.7c.1.5.3.9.5,1.2.3.3.6.5.9.7.4.1.8.2,1.2.2.7,0,1.2-.1,1.5-.3.3-.2.5-.5.5-.9s-.2-.6-.5-.8c-.3-.2-.8-.4-1.4-.5h-.6c-.8-.3-1.5-.5-2.1-.7-.6-.3-1.2-.6-1.6-1.1-.4-.5-.6-1.1-.6-1.8,0-1.1.4-2,1.2-2.5.8-.6,1.9-.9,3.2-.9s2.3.3,3.1.8c.8.6,1.4,1.3,1.6,2.2l-2.6.8c-.1-.6-.4-1-.7-1.2-.4-.2-.8-.4-1.4-.4s-1,0-1.2.3c-.3.2-.4.4-.4.8s.1.6.5.8c.3.2.7.3,1.2.4h.6c.8.3,1.6.5,2.3.7.7.2,1.2.6,1.6,1.1.4.5.6,1.1.6,1.8,0,1.2-.4,2.1-1.3,2.7-.8.6-2,.9-3.4.9Z"/>
  <path class="cls-2" d="M127.3,26.9c-.9,0-1.6-.2-2.3-.6-.6-.4-1.2-1-1.5-1.7-.4-.7-.5-1.5-.5-2.4v-6.7h2.8v6.4c0,.8.2,1.5.6,1.9.4.4,1,.6,1.8.6s1.5-.3,2-.9c.5-.6.7-1.4.7-2.4v-5.7h2.8v11.2h-2.8v-1.5h-.4c-.2.4-.5.7-1,1.1-.5.4-1.2.5-2.3.5Z"/>
  <path class="cls-2" d="M136,26.7v-11.2h2.8v1.2h.4c.2-.4.5-.7,1-1,.5-.3,1-.4,1.8-.4s1.4.2,1.9.5c.5.3.8.7,1.1,1.2h.4c.3-.5.6-.9,1.1-1.2.5-.3,1.1-.5,2-.5s1.3.2,1.9.5c.6.3,1,.7,1.4,1.3.3.6.5,1.3.5,2.2v7.3h-2.8v-7.1c0-.6-.2-1.1-.5-1.4-.3-.3-.8-.5-1.3-.5s-1.2.2-1.5.6c-.3.4-.5,1-.5,1.8v6.6h-2.8v-7.1c0-.6-.2-1.1-.5-1.4-.3-.3-.8-.5-1.3-.5s-1.1.2-1.5.6c-.3.4-.5,1-.5,1.8v6.6h-2.8Z"/>
</svg>